<svg width="210" height="201" viewBox="0 0 210 201" fill="none" xmlns="http://www.w3.org/2000/svg">
<mask id="mask0_540_5818" style="mask-type:luminance" maskUnits="userSpaceOnUse" x="0" y="0" width="210" height="198">
<rect width="210" height="198" fill="white"/>
</mask>
<g mask="url(#mask0_540_5818)">
<path fill-rule="evenodd" clip-rule="evenodd" d="M209.955 98.9776C209.955 153.641 165.816 197.955 111.368 197.955C56.9204 197.955 12.7815 153.641 12.7815 98.9776C12.7815 44.3138 56.9204 0 111.368 0C165.816 0 209.955 44.3138 209.955 98.9776C209.955 153.641 209.955 98.9776 209.955 98.9776Z" fill="#F5F7FF"/>
<path d="M38.3442 45.2264C38.2101 44.8226 38.4335 44.3739 38.8357 44.2842L47.2375 42.5344C47.6844 42.4446 48.0866 42.8036 48.0866 43.2522L46.7459 63.3977C46.7012 64.1605 45.6734 64.2951 45.4052 63.6221L38.3442 45.2264Z" fill="#D9E0FF"/>
<path d="M54.3881 37.5087C54.4328 37.06 54.835 36.7908 55.282 36.9254L63.5497 39.2136C63.9966 39.3482 64.1753 39.8418 63.9519 40.2456L53.539 57.5644C53.1815 58.1926 52.1983 57.8785 52.2877 57.1157L54.3881 37.5087Z" fill="#D9E0FF"/>
<path d="M64.5327 50.4307C64.7562 50.0718 65.2477 49.982 65.5606 50.2513L69.4486 53.4817C69.8062 53.7958 69.7615 54.3342 69.404 54.6034L59.6615 61.4232C59.0358 61.8719 58.2761 61.154 58.6783 60.481L64.5327 50.4307Z" fill="#D9E0FF"/>
<path d="M89.023 100.189L9.60827 123.52L1.38525 95.1637C0.6702 92.696 2.0556 90.1386 4.51357 89.4207L72.1301 69.5444C76.1969 68.3779 80.4425 70.711 81.6491 74.7939L89.023 100.189Z" fill="url(#paint0_linear_540_5818)"/>
<path d="M1.34081 95.1641L2.10055 97.8113C1.3855 95.3436 2.7709 92.7861 5.22887 92.0682L72.8901 72.2368C73.0688 72.192 73.2029 72.1471 73.337 72.1022C76.2419 71.4292 78.3423 73.2688 78.968 75.557L81.56 74.7943C80.3534 70.7113 76.1078 68.3782 72.041 69.5896L4.46914 89.4211C4.51383 89.4211 4.51383 89.4211 4.46914 89.4211C2.01117 90.1389 0.625766 92.6964 1.34081 95.1641Z" fill="#0E3C52"/>
<path d="M86.2524 110.329C86.7887 112.213 85.7161 114.187 83.8391 114.77L14.0328 135.275C12.1558 135.813 10.1894 134.736 9.60842 132.852L1.29601 104.271C0.759724 102.387 1.83229 100.413 3.70929 99.8295L73.5156 79.3251C75.3926 78.7867 77.4037 79.8635 77.94 81.748L86.2524 110.329Z" fill="url(#paint1_linear_540_5818)"/>
<path d="M15.284 160.446C15.9991 162.914 18.5464 164.305 21.0044 163.587L93.3581 142.364C97.4249 141.153 99.7488 136.891 98.5422 132.852L81.6492 74.8389L79.0572 75.6016C79.7275 77.845 78.9678 80.537 76.1523 81.569C76.0182 81.6139 75.8395 81.6587 75.7054 81.7036L3.30701 102.881C0.893728 103.599 -0.536363 106.156 0.178683 108.624L15.284 160.446Z" fill="#0E3C52"/>
<path d="M94.1179 144.967L21.7642 166.234C19.3062 166.952 16.7589 165.561 16.0438 163.093L0.938468 111.271C0.223422 108.803 1.60882 106.246 4.06679 105.528L76.4205 84.3058C80.4873 83.0944 82.8112 78.832 81.6046 74.7939L99.302 135.455C100.509 139.538 98.14 143.8 94.1179 144.967Z" fill="url(#paint2_linear_540_5818)"/>
<path d="M24.0881 139.179L10.2788 143.217C8.49117 143.756 6.61417 142.724 6.07789 140.929L2.59204 128.904L19.6638 123.879C23.82 122.668 28.2443 125.091 29.4509 129.308C30.6576 133.526 28.289 137.923 24.0881 139.179Z" fill="#0E3C52"/>
<path d="M1.47477 125.091L2.90486 130.026L6.16726 129.084L3.75398 120.873C1.96636 121.411 0.938484 123.296 1.47477 125.091Z" fill="#0E3C52"/>
<path fill-rule="evenodd" clip-rule="evenodd" d="M26.3827 130.499C26.8209 133.088 25.0847 135.541 22.5048 135.978C19.9249 136.414 17.4783 134.669 17.0401 132.08C16.6019 129.49 18.3381 127.037 20.918 126.6C23.4979 126.164 25.9445 127.909 26.3827 130.499C26.8209 133.088 26.3827 130.499 26.3827 130.499Z" fill="white"/>
<path d="M184.214 72.1467C184.214 72.1018 184.214 72.1018 184.214 72.057C184.214 71.9672 184.214 71.8775 184.214 71.7429C184.035 64.6987 178.27 61.1542 178.27 61.1542L176.795 62.7694L133.892 48.9502C128.842 47.335 123.435 50.1168 121.826 55.1868L88.3975 159.818L84.6882 163.856C84.8223 169.509 89.2913 173.323 89.336 173.368C90.4086 174.489 91.7493 175.387 93.3582 175.88L136.976 189.924C142.026 191.539 147.433 188.757 149.042 183.687L183.722 75.108C184.035 74.4349 184.169 73.6722 184.214 72.8646C184.214 72.6402 184.214 72.4159 184.214 72.1467Z" fill="#0E3C52"/>
<path fill-rule="evenodd" clip-rule="evenodd" d="M154 47C154 51.4183 150.418 55 146 55C141.582 55 138 51.4183 138 47C138 42.5817 141.582 39 146 39C150.418 39 154 42.5817 154 47C154 51.4183 154 47 154 47Z" fill="url(#paint3_linear_540_5818)"/>
<path d="M91.6692 172.389C86.6192 170.774 83.8484 165.345 85.4572 160.275L120.137 51.6956C121.746 46.6256 127.153 43.8438 132.203 45.459L175.821 59.5025C180.871 61.1178 183.642 66.5467 182.033 71.6167L147.353 180.196C145.745 185.266 140.337 188.048 135.287 186.433L91.6692 172.389Z" fill="url(#paint4_linear_540_5818)"/>
<path d="M168.661 60.9301L168.08 62.6799C167.544 64.2952 165.846 65.1925 164.192 64.699L138.361 56.3985C136.752 55.8601 135.858 54.1551 136.35 52.495L136.931 50.7452L131.255 48.9056C127.591 47.7391 123.658 49.7581 122.451 53.4372L88.0845 160.984C86.9225 164.664 88.9336 168.612 92.5982 169.823L135.635 183.687C139.3 184.854 143.232 182.835 144.439 179.156L178.806 71.6086C180.057 67.9294 178.001 63.9811 174.337 62.7697L168.661 60.9301Z" fill="white"/>
<path d="M162.092 124.148L95.4586 138.147L91.7046 149.857L157.578 138.237L162.092 124.148Z" fill="#EDEFFF"/>
<path d="M102.475 116.162L168.125 105.169L177.823 74.8389L113.066 83.0496L102.475 116.162Z" fill="#EDEFFF"/>
<path d="M148.193 56.802C147.88 56.7122 147.702 56.3533 147.791 56.0392C147.88 55.7251 148.238 55.5457 148.551 55.6354L156.193 58.1031C156.506 58.1928 156.684 58.5518 156.595 58.8659C156.506 59.1799 156.148 59.3594 155.835 59.2697L148.193 56.802Z" fill="white"/>
<path fill-rule="evenodd" clip-rule="evenodd" d="M160.796 59.8983C160.796 60.4186 160.376 60.8405 159.857 60.8405C159.339 60.8405 158.919 60.4186 158.919 59.8983C158.919 59.3779 159.339 58.9561 159.857 58.9561C160.376 58.9561 160.796 59.3779 160.796 59.8983C160.796 60.4186 160.796 59.8983 160.796 59.8983Z" fill="white"/>
<path fill-rule="evenodd" clip-rule="evenodd" d="M191.364 66.6728C191.364 64.4294 191.766 62.545 192.571 61.0644C193.375 59.5837 194.582 57.9236 196.146 56.1289C197.308 54.7829 198.202 53.6164 198.738 52.719C199.274 51.8217 199.542 50.7897 199.542 49.668C199.542 48.4566 199.095 47.4695 198.202 46.7516C197.308 46.0338 196.101 45.6748 194.537 45.6748C193.152 45.6748 191.811 45.944 190.604 46.5273C189.398 47.1106 187.789 47.9631 185.778 49.1745C184.526 49.8924 183.454 50.2513 182.605 50.2513C181.666 50.2513 180.906 49.8475 180.281 49.0399C179.655 48.2323 179.342 47.2452 179.342 46.1235C179.342 45.3159 179.476 44.6429 179.789 44.1045C180.057 43.5661 180.504 43.0276 181.13 42.5341C183.052 41.0086 185.286 39.7972 187.789 38.9447C190.291 38.0922 192.839 37.6436 195.386 37.6436C198.112 37.6436 200.526 38.1371 202.715 39.0793C204.905 40.0664 206.559 41.3676 207.765 43.0725C208.972 44.7775 209.553 46.6619 209.553 48.7707C209.553 50.3859 209.24 51.8665 208.614 53.2126C207.989 54.5586 207.229 55.7251 206.335 56.7122C205.441 57.6993 204.28 58.9107 202.805 60.3914C201.151 61.9168 199.9 63.218 199.051 64.2499C198.202 65.2819 197.71 66.4485 197.487 67.7047C197.308 68.5572 196.95 69.1854 196.414 69.634C195.878 70.0827 195.207 70.3071 194.403 70.3071C193.464 70.3071 192.705 69.993 192.168 69.32C191.632 68.647 191.364 67.7945 191.364 66.6728ZM188.995 79.46C188.995 77.8448 189.532 76.4988 190.56 75.4219C191.632 74.3451 192.928 73.8067 194.582 73.8067C196.146 73.8067 197.487 74.3451 198.514 75.4219C199.587 76.4988 200.079 77.8448 200.079 79.46C200.079 81.0752 199.542 82.4213 198.514 83.4981C197.442 84.5749 196.146 85.1133 194.582 85.1133C192.928 85.1133 191.587 84.5749 190.56 83.4981C189.487 82.4213 188.995 81.0752 188.995 79.46Z" fill="url(#paint5_linear_540_5818)"/>
</g>
<path fill-rule="evenodd" clip-rule="evenodd" d="M127 193.5C127 197.642 123.642 201 119.5 201C115.358 201 112 197.642 112 193.5C112 189.358 115.358 186 119.5 186C123.642 186 127 189.358 127 193.5C127 197.642 127 193.5 127 193.5Z" fill="url(#paint6_linear_540_5818)"/>
<path fill-rule="evenodd" clip-rule="evenodd" d="M16 75C16 77.7614 13.7614 80 11 80C8.23858 80 6 77.7614 6 75C6 72.2386 8.23858 70 11 70C13.7614 70 16 72.2386 16 75C16 77.7614 16 75 16 75Z" fill="url(#paint7_linear_540_5818)"/>
<path fill-rule="evenodd" clip-rule="evenodd" d="M46 167C46 171.971 41.9706 176 37 176C32.0294 176 28 171.971 28 167C28 162.029 32.0294 158 37 158C41.9706 158 46 162.029 46 167C46 171.971 46 167 46 167Z" fill="url(#paint8_linear_540_5818)"/>
<path fill-rule="evenodd" clip-rule="evenodd" d="M90 18.5C90 22.0899 87.0899 25 83.5 25C79.9101 25 77 22.0899 77 18.5C77 14.9101 79.9101 12 83.5 12C87.0899 12 90 14.9101 90 18.5C90 22.0899 90 18.5 90 18.5Z" fill="url(#paint9_linear_540_5818)"/>
<path fill-rule="evenodd" clip-rule="evenodd" d="M189 137C189 140.866 185.866 144 182 144C178.134 144 175 140.866 175 137C175 133.134 178.134 130 182 130C185.866 130 189 133.134 189 137C189 140.866 189 137 189 137Z" fill="url(#paint10_linear_540_5818)"/>
<path d="M70.2597 118.079C72.0886 117.332 73.8011 116.816 75.3971 116.532C77.2987 116.193 79.0296 116.173 80.5897 116.473C82.1498 116.773 83.5016 117.328 84.645 118.141C85.8054 118.95 86.7515 119.981 87.4831 121.234C88.2318 122.485 88.7469 123.9 89.0286 125.479C89.3739 127.414 89.3463 129.224 88.9457 130.907C88.5622 132.587 87.8762 134.093 86.8876 135.426C85.9129 136.739 84.6806 137.834 83.1906 138.713C81.7006 139.592 80.0303 140.197 78.1796 140.527C77.1099 140.718 76.0631 140.791 75.0389 140.746C74.0178 140.717 73.0425 140.602 72.113 140.4C71.2004 140.195 70.3383 139.929 69.5264 139.6C68.7145 139.272 67.983 138.903 67.3319 138.494L68.3873 136.308C68.6142 135.813 68.9738 135.521 69.4662 135.433C69.8058 135.372 70.212 135.44 70.685 135.636C71.1549 135.815 71.7242 136.011 72.393 136.225C73.0617 136.438 73.8278 136.608 74.6913 136.734C75.5687 136.841 76.5761 136.792 77.7137 136.589C78.9871 136.362 80.0968 135.954 81.0429 135.365C81.9889 134.776 82.7603 134.042 83.3571 133.165C83.9509 132.271 84.3492 131.262 84.5519 130.14C84.7546 129.018 84.7394 127.803 84.5062 126.496C84.3032 125.358 83.9502 124.361 83.4471 123.505C82.9609 122.646 82.3208 121.954 81.5265 121.43C80.7493 120.903 79.828 120.55 78.7626 120.372C77.6973 120.195 76.4939 120.225 75.1526 120.465C74.2358 120.628 73.2901 120.876 72.3156 121.207C71.3581 121.536 70.3918 121.962 69.4167 122.486L66.4144 122.155L66.2993 104.569L83.592 101.484L83.9464 103.47C84.0615 104.116 83.9532 104.687 83.6214 105.184C83.3036 105.661 82.6608 105.986 81.693 106.159L70.2324 108.203L70.2597 118.079Z" fill="#D29628"/>
<path d="M70.2597 118.079L67.2597 118.087L67.2721 122.539L71.3937 120.856L70.2597 118.079ZM80.5897 116.473L80.0235 119.419L80.0235 119.419L80.5897 116.473ZM84.645 118.141L82.9079 120.586L82.9185 120.594L82.9292 120.601L84.645 118.141ZM87.4831 121.234L84.8922 122.747L84.9006 122.761L84.9092 122.775L87.4831 121.234ZM88.9457 130.907L86.0272 130.212L86.024 130.226L86.021 130.239L88.9457 130.907ZM86.8876 135.426L89.2961 137.214L89.2969 137.213L86.8876 135.426ZM83.1906 138.713L84.7149 141.297L83.1906 138.713ZM75.0389 140.746L75.1708 137.748L75.1461 137.747L75.1214 137.747L75.0389 140.746ZM72.113 140.4L71.4551 143.327L71.4654 143.33L71.4756 143.332L72.113 140.4ZM69.5264 139.6L68.4021 142.382L68.4021 142.382L69.5264 139.6ZM67.3319 138.494L64.6304 137.189L63.4635 139.605L65.735 141.034L67.3319 138.494ZM68.3873 136.308L71.0888 137.613L71.1024 137.585L71.1155 137.556L68.3873 136.308ZM70.685 135.636L69.5367 138.407L69.5767 138.424L69.6172 138.439L70.685 135.636ZM72.393 136.225L73.3056 133.367L72.393 136.225ZM74.6913 136.734L74.2571 139.703L74.2938 139.708L74.3306 139.713L74.6913 136.734ZM81.0429 135.365L79.4568 132.818L79.4568 132.818L81.0429 135.365ZM83.3571 133.165L85.8376 134.852L85.847 134.839L85.8564 134.825L83.3571 133.165ZM83.4471 123.505L80.836 124.982L80.8481 125.003L80.8605 125.025L83.4471 123.505ZM81.5265 121.43L79.8428 123.913L79.8585 123.923L79.8743 123.934L81.5265 121.43ZM78.7626 120.372L79.2566 117.413L79.2566 117.413L78.7626 120.372ZM72.3156 121.207L71.3495 118.367L71.3422 118.37L72.3156 121.207ZM69.4167 122.486L69.0873 125.468L70.0152 125.571L70.8374 125.129L69.4167 122.486ZM66.4144 122.155L63.4144 122.174L63.4319 124.844L66.085 125.137L66.4144 122.155ZM66.2993 104.569L65.7725 101.615L63.2828 102.06L63.2994 104.588L66.2993 104.569ZM83.592 101.484L86.5454 100.957L86.0186 98.0038L83.0652 98.5306L83.592 101.484ZM83.6214 105.184L81.126 103.519L81.1246 103.521L83.6214 105.184ZM70.2324 108.203L69.7056 105.25L67.2254 105.692L67.2324 108.211L70.2324 108.203ZM71.3937 120.856C73.0678 120.173 74.5752 119.726 75.9239 119.485L74.8703 113.578C73.027 113.907 71.1095 114.492 69.1258 115.301L71.3937 120.856ZM75.9239 119.485C77.5396 119.197 78.8928 119.201 80.0235 119.419L81.1559 113.527C79.1663 113.144 77.0578 113.188 74.8703 113.578L75.9239 119.485ZM80.0235 119.419C81.218 119.648 82.1581 120.054 82.9079 120.586L86.3822 115.695C84.845 114.603 83.0816 113.897 81.1559 113.527L80.0235 119.419ZM82.9292 120.601C83.7231 121.155 84.3741 121.859 84.8922 122.747L90.0741 119.722C89.1288 118.103 87.8878 116.744 86.3608 115.68L82.9292 120.601ZM84.9092 122.775C85.453 123.684 85.851 124.749 86.0752 126.006L91.982 124.952C91.6428 123.051 91.0106 121.286 90.0571 119.693L84.9092 122.775ZM86.0752 126.006C86.358 127.591 86.3203 128.981 86.0272 130.212L91.8643 131.601C92.3722 129.467 92.3897 127.237 91.982 124.952L86.0752 126.006ZM86.021 130.239C85.7262 131.53 85.2097 132.652 84.4782 133.638L89.2969 137.213C90.5426 135.534 91.3982 133.643 91.8705 131.574L86.021 130.239ZM84.479 133.637C83.7567 134.61 82.8318 135.442 81.6663 136.129L84.7149 141.297C86.5294 140.227 88.0691 138.867 89.2961 137.214L84.479 133.637ZM81.6663 136.129C80.5098 136.812 79.1822 137.301 77.6528 137.573L78.7064 143.48C80.8784 143.093 82.8914 142.373 84.7149 141.297L81.6663 136.129ZM77.6528 137.573C76.7875 137.728 75.9616 137.783 75.1708 137.748L74.9071 143.743C76.1645 143.798 77.4324 143.708 78.7064 143.48L77.6528 137.573ZM75.1214 137.747C74.2733 137.723 73.4845 137.628 72.7503 137.469L71.4756 143.332C72.6005 143.576 73.7623 143.712 74.9565 143.744L75.1214 137.747ZM72.7709 137.473C72.0068 137.302 71.3015 137.082 70.6507 136.819L68.4021 142.382C69.375 142.775 70.3941 143.089 71.4551 143.327L72.7709 137.473ZM70.6507 136.819C69.9811 136.548 69.4109 136.257 68.9287 135.954L65.735 141.034C66.5552 141.549 67.448 141.996 68.4021 142.382L70.6507 136.819ZM70.0333 139.799L71.0888 137.613L65.6859 135.004L64.6304 137.189L70.0333 139.799ZM71.1155 137.556C71.0706 137.654 70.9551 137.854 70.7178 138.047C70.472 138.246 70.2059 138.348 69.993 138.386L68.9394 132.479C67.3793 132.758 66.2521 133.764 65.6592 135.061L71.1155 137.556ZM69.993 138.386C69.7675 138.426 69.6035 138.409 69.5326 138.397C69.4643 138.386 69.4622 138.377 69.5367 138.407L71.8332 132.864C71.0713 132.549 70.0541 132.281 68.9394 132.479L69.993 138.386ZM69.6172 138.439C70.1539 138.644 70.7781 138.858 71.4804 139.082L73.3056 133.367C72.6703 133.164 72.1558 132.986 71.7527 132.832L69.6172 138.439ZM71.4804 139.082C72.3375 139.356 73.2687 139.558 74.2571 139.703L75.1254 133.766C74.387 133.658 73.786 133.52 73.3056 133.367L71.4804 139.082ZM74.3306 139.713C75.5781 139.864 76.8947 139.783 78.2406 139.543L77.1869 133.636C76.2576 133.802 75.5592 133.818 75.052 133.756L74.3306 139.713ZM78.2406 139.543C79.8301 139.259 81.3112 138.732 82.6289 137.911L79.4568 132.818C78.8824 133.176 78.1441 133.465 77.1869 133.636L78.2406 139.543ZM82.6289 137.911C83.9114 137.113 84.9939 136.093 85.8376 134.852L80.8767 131.478C80.5267 131.992 80.0664 132.439 79.4568 132.818L82.6289 137.911ZM85.8564 134.825C86.6902 133.569 87.2333 132.173 87.5041 130.673L81.5997 129.607C81.465 130.352 81.2116 130.973 80.8579 131.506L85.8564 134.825ZM87.5041 130.673C87.7796 129.148 87.7452 127.57 87.4595 125.969L81.5528 127.022C81.7336 128.036 81.7296 128.888 81.5997 129.607L87.5041 130.673ZM87.4595 125.969C87.2042 124.537 86.7438 123.194 86.0336 121.985L80.8605 125.025C81.1567 125.529 81.4023 126.179 81.5528 127.022L87.4595 125.969ZM86.0582 122.028C85.3473 120.771 84.3845 119.721 83.1787 118.926L79.8743 123.934C80.2571 124.186 80.5746 124.52 80.836 124.982L86.0582 122.028ZM83.2102 118.947C82.0254 118.143 80.6844 117.652 79.2566 117.413L78.2686 123.332C78.9715 123.449 79.4731 123.662 79.8428 123.913L83.2102 118.947ZM79.2566 117.413C77.7779 117.167 76.2202 117.227 74.6258 117.511L75.6795 123.418C76.7677 123.224 77.6167 123.223 78.2686 123.332L79.2566 117.413ZM74.6258 117.511C73.5453 117.704 72.4526 117.992 71.3495 118.367L73.2818 124.047C74.1277 123.76 74.9263 123.552 75.6795 123.418L74.6258 117.511ZM71.3422 118.37C70.2169 118.756 69.1014 119.25 67.996 119.844L70.8374 125.129C71.6822 124.674 72.4993 124.316 73.2891 124.045L71.3422 118.37ZM69.7461 119.505L66.7437 119.173L66.085 125.137L69.0873 125.468L69.7461 119.505ZM69.4143 122.135L69.2992 104.549L63.2994 104.588L63.4144 122.174L69.4143 122.135ZM66.8261 107.522L84.1189 104.437L83.0652 98.5306L65.7725 101.615L66.8261 107.522ZM80.6387 102.011L80.993 103.997L86.8998 102.944L86.5454 100.957L80.6387 102.011ZM80.993 103.997C80.9946 104.006 80.9821 103.939 81.004 103.824C81.027 103.703 81.075 103.595 81.126 103.519L86.1168 106.849C86.9217 105.643 87.1365 104.271 86.8998 102.944L80.993 103.997ZM81.1246 103.521C81.3176 103.231 81.5234 103.12 81.5477 103.108C81.5601 103.102 81.5392 103.114 81.4724 103.134C81.4062 103.155 81.3063 103.18 81.1661 103.205L82.2198 109.112C83.452 108.892 85.1132 108.356 86.1182 106.847L81.1246 103.521ZM81.1661 103.205L69.7056 105.25L70.7592 111.156L82.2198 109.112L81.1661 103.205ZM67.2324 108.211L67.2597 118.087L73.2597 118.071L73.2324 108.195L67.2324 108.211Z" fill="#D29628"/>
<path d="M132.849 144.489C134.817 144.658 136.577 144.98 138.127 145.454C139.974 146.019 141.524 146.79 142.776 147.768C144.028 148.746 144.978 149.857 145.625 151.101C146.289 152.35 146.661 153.699 146.741 155.148C146.838 156.602 146.651 158.096 146.183 159.63C145.608 161.511 144.758 163.108 143.635 164.424C142.528 165.745 141.23 166.773 139.743 167.508C138.277 168.233 136.681 168.646 134.954 168.75C133.227 168.853 131.465 168.63 129.667 168.08C128.628 167.762 127.663 167.35 126.772 166.843C125.876 166.353 125.06 165.806 124.325 165.202C123.606 164.604 122.96 163.973 122.387 163.311C121.814 162.649 121.331 161.987 120.938 161.326L122.874 159.862C123.302 159.524 123.755 159.428 124.233 159.574C124.563 159.675 124.894 159.921 125.226 160.311C125.562 160.684 125.98 161.118 126.477 161.613C126.975 162.108 127.58 162.608 128.291 163.114C129.023 163.609 129.942 164.025 131.047 164.363C132.284 164.741 133.458 164.884 134.569 164.79C135.679 164.697 136.7 164.396 137.631 163.887C138.567 163.362 139.381 162.646 140.073 161.739C140.765 160.833 141.305 159.744 141.694 158.474C142.031 157.369 142.172 156.321 142.114 155.33C142.073 154.343 141.818 153.436 141.35 152.607C140.899 151.784 140.239 151.05 139.372 150.406C138.505 149.762 137.42 149.241 136.117 148.843C135.226 148.571 134.272 148.36 133.253 148.211C132.251 148.067 131.197 148.006 130.09 148.028L127.569 146.365L135.482 130.659L152.28 135.795L151.69 137.725C151.498 138.351 151.141 138.81 150.619 139.102C150.119 139.382 149.399 139.378 148.459 139.09L137.326 135.687L132.849 144.489Z" fill="#D29628"/>
<path d="M132.849 144.489L130.175 143.129L128.157 147.098L132.593 147.478L132.849 144.489ZM142.776 147.768L140.929 150.132L140.929 150.132L142.776 147.768ZM145.625 151.101L142.964 152.486L142.97 152.498L142.976 152.509L145.625 151.101ZM146.741 155.148L143.746 155.313L143.747 155.33L143.748 155.347L146.741 155.148ZM143.635 164.424L141.354 162.476L141.345 162.486L141.336 162.497L143.635 164.424ZM139.743 167.508L141.072 170.198L141.073 170.198L139.743 167.508ZM134.954 168.75L135.133 171.744L134.954 168.75ZM126.772 166.843L128.255 164.235L128.234 164.223L128.212 164.211L126.772 166.843ZM124.325 165.202L122.405 167.508L122.414 167.514L122.422 167.521L124.325 165.202ZM122.387 163.311L120.119 165.274L120.119 165.274L122.387 163.311ZM120.938 161.326L119.128 158.934L116.989 160.552L118.359 162.859L120.938 161.326ZM122.874 159.862L124.684 162.255L124.709 162.236L124.733 162.216L122.874 159.862ZM125.226 160.311L122.94 162.254L122.968 162.287L122.997 162.319L125.226 160.311ZM126.477 161.613L128.592 159.485L126.477 161.613ZM128.291 163.114L126.552 165.559L126.582 165.58L126.612 165.601L128.291 163.114ZM134.569 164.79L134.318 161.801L134.318 161.801L134.569 164.79ZM137.631 163.887L139.07 166.52L139.085 166.511L139.099 166.503L137.631 163.887ZM142.114 155.33L139.117 155.454L139.118 155.479L139.119 155.503L142.114 155.33ZM141.35 152.607L138.72 154.05L138.729 154.067L138.738 154.083L141.35 152.607ZM139.372 150.406L141.161 147.998L141.161 147.998L139.372 150.406ZM133.253 148.211L133.688 145.243L133.68 145.241L133.253 148.211ZM130.09 148.028L128.438 150.532L129.217 151.046L130.15 151.028L130.09 148.028ZM127.569 146.365L124.89 145.015L123.689 147.399L125.916 148.869L127.569 146.365ZM135.482 130.659L136.359 127.79L133.94 127.051L132.802 129.309L135.482 130.659ZM152.28 135.795L155.149 136.672L156.026 133.803L153.157 132.926L152.28 135.795ZM150.619 139.102L149.157 136.482L149.155 136.483L150.619 139.102ZM137.326 135.687L138.203 132.818L135.794 132.081L134.652 134.327L137.326 135.687ZM132.593 147.478C134.394 147.633 135.94 147.922 137.25 148.323L139.004 142.585C137.214 142.037 135.241 141.684 133.106 141.5L132.593 147.478ZM137.25 148.323C138.819 148.803 140.022 149.423 140.929 150.132L144.623 145.404C143.026 144.157 141.129 143.235 139.004 142.585L137.25 148.323ZM140.929 150.132C141.888 150.881 142.54 151.67 142.964 152.486L148.286 149.716C147.416 148.043 146.168 146.611 144.623 145.404L140.929 150.132ZM142.976 152.509C143.431 153.364 143.689 154.287 143.746 155.313L149.737 154.983C149.634 153.111 149.148 151.336 148.274 149.692L142.976 152.509ZM143.748 155.347C143.818 156.403 143.687 157.532 143.314 158.753L149.051 160.507C149.616 158.661 149.858 156.802 149.735 154.95L143.748 155.347ZM143.314 158.753C142.843 160.293 142.176 161.513 141.354 162.476L145.916 166.372C147.341 164.704 148.373 162.728 149.051 160.507L143.314 158.753ZM141.336 162.497C140.485 163.512 139.514 164.275 138.413 164.819L141.073 170.198C142.947 169.271 144.57 167.978 145.934 166.351L141.336 162.497ZM138.414 164.819C137.328 165.355 136.126 165.674 134.775 165.755L135.133 171.744C137.236 171.618 139.226 171.11 141.072 170.198L138.414 164.819ZM134.775 165.755C133.435 165.835 132.03 165.665 130.544 165.211L128.79 170.949C130.9 171.594 133.02 171.871 135.133 171.744L134.775 165.755ZM130.544 165.211C129.704 164.954 128.944 164.627 128.255 164.235L125.289 169.451C126.383 170.073 127.553 170.57 128.79 170.949L130.544 165.211ZM128.212 164.211C127.468 163.804 126.809 163.36 126.229 162.883L122.422 167.521C123.311 168.251 124.284 168.901 125.332 169.475L128.212 164.211ZM126.245 162.897C125.643 162.396 125.115 161.879 124.656 161.348L120.119 165.274C120.806 166.068 121.57 166.812 122.405 167.508L126.245 162.897ZM124.656 161.348C124.183 160.802 123.808 160.283 123.517 159.793L118.359 162.859C118.854 163.692 119.446 164.496 120.119 165.274L124.656 161.348ZM122.748 163.719L124.684 162.255L121.064 157.47L119.128 158.934L122.748 163.719ZM124.733 162.216C124.649 162.283 124.455 162.408 124.156 162.472C123.846 162.537 123.563 162.506 123.356 162.443L125.11 156.705C123.595 156.242 122.133 156.624 121.014 157.508L124.733 162.216ZM123.356 162.443C123.137 162.376 122.999 162.286 122.941 162.243C122.886 162.202 122.888 162.193 122.94 162.254L127.511 158.367C126.977 157.739 126.193 157.036 125.11 156.705L123.356 162.443ZM122.997 162.319C123.382 162.746 123.84 163.221 124.363 163.741L128.592 159.485C128.119 159.015 127.743 158.622 127.454 158.302L122.997 162.319ZM124.363 163.741C125.001 164.375 125.738 164.979 126.552 165.559L130.03 160.67C129.422 160.237 128.95 159.841 128.592 159.485L124.363 163.741ZM126.612 165.601C127.654 166.304 128.863 166.832 130.17 167.232L131.924 161.494C131.022 161.218 130.393 160.914 129.969 160.628L126.612 165.601ZM130.17 167.232C131.714 167.704 133.273 167.91 134.82 167.78L134.318 161.801C133.643 161.857 132.854 161.778 131.924 161.494L130.17 167.232ZM134.82 167.78C136.325 167.653 137.754 167.239 139.07 166.52L136.192 161.255C135.646 161.553 135.033 161.741 134.318 161.801L134.82 167.78ZM139.099 166.503C140.414 165.765 141.534 164.77 142.458 163.559L137.689 159.919C137.229 160.521 136.721 160.958 136.163 161.271L139.099 166.503ZM142.458 163.559C143.398 162.327 144.087 160.907 144.563 159.351L138.825 157.597C138.524 158.582 138.132 159.338 137.689 159.919L142.458 163.559ZM144.563 159.351C144.988 157.961 145.19 156.555 145.109 155.156L139.119 155.503C139.153 156.087 139.075 156.778 138.825 157.597L144.563 159.351ZM145.111 155.205C145.051 153.762 144.673 152.389 143.962 151.131L138.738 154.083C138.964 154.482 139.095 154.924 139.117 155.454L145.111 155.205ZM143.981 151.165C143.292 149.909 142.323 148.861 141.161 147.998L137.584 152.815C138.156 153.24 138.505 153.658 138.72 154.05L143.981 151.165ZM141.161 147.998C139.957 147.104 138.543 146.448 136.994 145.974L135.24 151.712C136.297 152.035 137.053 152.421 137.584 152.815L141.161 147.998ZM136.994 145.974C135.944 145.653 134.841 145.411 133.688 145.243L132.819 151.179C133.703 151.309 134.508 151.488 135.24 151.712L136.994 145.974ZM133.68 145.241C132.503 145.072 131.284 145.004 130.03 145.029L130.15 151.028C131.109 151.008 132 151.062 132.826 151.18L133.68 145.241ZM131.742 145.524L129.221 143.861L125.916 148.869L128.438 150.532L131.742 145.524ZM130.248 147.715L138.161 132.009L132.802 129.309L124.89 145.015L130.248 147.715ZM134.604 133.528L151.403 138.664L153.157 132.926L136.359 127.79L134.604 133.528ZM149.411 134.918L148.821 136.848L154.559 138.602L155.149 136.672L149.411 134.918ZM148.821 136.848C148.818 136.856 148.837 136.791 148.91 136.698C148.985 136.601 149.077 136.527 149.157 136.482L152.082 141.721C153.348 141.015 154.164 139.891 154.559 138.602L148.821 136.848ZM149.155 136.483C149.459 136.313 149.693 136.309 149.72 136.309C149.734 136.309 149.71 136.31 149.641 136.298C149.573 136.286 149.472 136.263 149.336 136.221L147.582 141.959C148.779 142.325 150.502 142.605 152.084 141.72L149.155 136.483ZM149.336 136.221L138.203 132.818L136.449 138.555L147.582 141.959L149.336 136.221ZM134.652 134.327L130.175 143.129L135.523 145.849L140 137.047L134.652 134.327Z" fill="#D29628"/>
<path d="M129.872 115.425C129.103 118.575 128.092 121.222 126.84 123.366C125.609 125.497 124.222 127.174 122.681 128.395C121.14 129.616 119.475 130.399 117.686 130.743C115.915 131.091 114.116 131.042 112.289 130.595C110.447 130.145 108.819 129.357 107.408 128.23C106.013 127.108 104.914 125.65 104.11 123.856C103.306 122.061 102.849 119.934 102.74 117.475C102.635 115 102.967 112.187 103.737 109.037C104.507 105.888 105.509 103.239 106.745 101.09C107.98 98.9423 109.368 97.2576 110.91 96.0365C112.455 94.7986 114.105 94.0035 115.86 93.6513C117.632 93.3031 119.439 93.3543 121.282 93.8048C123.108 94.2511 124.727 95.0374 126.138 96.1636C127.567 97.2938 128.681 98.7646 129.481 100.576C130.285 102.37 130.74 104.505 130.845 106.981C130.966 109.461 130.642 112.276 129.872 115.425ZM125.223 114.289C125.895 111.542 126.223 109.181 126.209 107.206C126.215 105.219 125.964 103.56 125.455 102.228C124.963 100.901 124.265 99.8691 123.362 99.1334C122.463 98.381 121.46 97.8697 120.355 97.5994C119.249 97.3291 118.124 97.3204 116.979 97.5732C115.838 97.8093 114.743 98.4027 113.694 99.3536C112.645 100.304 111.656 101.661 110.729 103.422C109.822 105.172 109.033 107.42 108.361 110.167C107.689 112.915 107.353 115.274 107.35 117.244C107.365 119.218 107.618 120.869 108.11 122.197C108.603 123.525 109.298 124.565 110.197 125.317C111.101 126.053 112.105 126.556 113.211 126.826C114.317 127.096 115.44 127.113 116.581 126.877C117.725 126.624 118.822 126.023 119.871 125.072C120.937 124.125 121.924 122.777 122.831 121.028C123.754 119.283 124.552 117.037 125.223 114.289Z" fill="#D29628"/>
<path d="M126.84 123.366L124.249 121.853L124.245 121.859L124.242 121.866L126.84 123.366ZM122.681 128.395L124.544 130.746L122.681 128.395ZM117.686 130.743L117.12 127.797L117.108 127.799L117.686 130.743ZM107.408 128.23L105.527 130.568L105.537 130.575L107.408 128.23ZM104.11 123.856L101.372 125.082L104.11 123.856ZM102.74 117.475L99.7425 117.603L99.7428 117.608L102.74 117.475ZM110.91 96.0365L112.773 98.3879L112.779 98.3829L112.785 98.3779L110.91 96.0365ZM115.86 93.6513L115.282 90.7075L115.27 90.7099L115.86 93.6513ZM126.138 96.1636L124.267 98.5086L124.277 98.516L126.138 96.1636ZM129.481 100.576L126.737 101.788L126.74 101.795L126.743 101.803L129.481 100.576ZM130.845 106.981L127.847 107.108L127.848 107.118L127.848 107.128L130.845 106.981ZM126.209 107.206L123.209 107.197L123.209 107.213L123.209 107.228L126.209 107.206ZM125.455 102.228L122.642 103.271L122.647 103.285L122.653 103.299L125.455 102.228ZM123.362 99.1334L121.437 101.434L121.452 101.447L121.467 101.46L123.362 99.1334ZM116.979 97.5732L117.587 100.511L117.606 100.507L117.626 100.503L116.979 97.5732ZM113.694 99.3536L115.709 101.576L115.709 101.576L113.694 99.3536ZM110.729 103.422L108.074 102.025L108.07 102.033L108.065 102.042L110.729 103.422ZM107.35 117.244L104.35 117.241L104.35 117.253L104.35 117.266L107.35 117.244ZM108.11 122.197L110.923 121.154L110.923 121.154L108.11 122.197ZM110.197 125.317L108.272 127.618L108.287 127.63L108.303 127.643L110.197 125.317ZM116.581 126.877L117.188 129.815L117.208 129.811L117.227 129.807L116.581 126.877ZM119.871 125.072L117.879 122.829L117.868 122.839L117.857 122.849L119.871 125.072ZM122.831 121.028L120.179 119.624L120.173 119.636L120.167 119.647L122.831 121.028ZM126.958 114.713C126.237 117.663 125.318 120.022 124.249 121.853L129.43 124.879C130.865 122.422 131.968 119.488 132.787 116.138L126.958 114.713ZM124.242 121.866C123.154 123.749 121.999 125.108 120.818 126.043L124.544 130.746C126.446 129.239 128.063 127.246 129.437 124.867L124.242 121.866ZM120.818 126.043C119.624 126.99 118.397 127.551 117.12 127.797L118.253 133.689C120.552 133.246 122.656 132.243 124.544 130.746L120.818 126.043ZM117.108 127.799C115.781 128.06 114.423 128.028 113.002 127.681L111.577 133.51C113.808 134.055 116.048 134.122 118.265 133.686L117.108 127.799ZM113.002 127.681C111.56 127.329 110.333 126.726 109.279 125.885L105.537 130.575C107.306 131.987 109.333 132.961 111.577 133.51L113.002 127.681ZM109.289 125.893C108.299 125.097 107.477 124.034 106.847 122.629L101.372 125.082C102.351 127.266 103.728 129.12 105.527 130.568L109.289 125.893ZM106.847 122.629C106.231 121.254 105.833 119.515 105.737 117.342L99.7428 117.608C99.8646 120.354 100.38 122.868 101.372 125.082L106.847 122.629ZM105.737 117.348C105.647 115.226 105.929 112.704 106.651 109.75L100.823 108.325C100.005 111.67 99.6225 114.773 99.7425 117.603L105.737 117.348ZM106.651 109.75C107.373 106.795 108.287 104.427 109.345 102.586L104.144 99.595C102.732 102.05 101.64 104.98 100.823 108.325L106.651 109.75ZM109.345 102.586C110.439 100.685 111.596 99.3204 112.773 98.3879L109.047 93.6851C107.141 95.1948 105.521 97.1998 104.144 99.595L109.345 102.586ZM112.785 98.3779C113.997 97.4075 115.214 96.8408 116.45 96.5926L115.27 90.7099C112.996 91.1662 110.913 92.1897 109.034 93.6951L112.785 98.3779ZM116.439 96.595C117.761 96.3351 119.128 96.3665 120.57 96.719L121.994 90.8906C119.75 90.3421 117.502 90.2712 115.282 90.7076L116.439 96.595ZM120.57 96.719C121.991 97.0663 123.21 97.6652 124.267 98.5085L128.01 93.8186C126.244 92.4096 124.226 91.4359 121.994 90.8906L120.57 96.719ZM124.277 98.516C125.29 99.3177 126.116 100.383 126.737 101.788L132.225 99.3636C131.245 97.146 129.843 95.27 128 93.8111L124.277 98.516ZM126.743 101.803C127.357 103.173 127.754 104.917 127.847 107.108L133.842 106.854C133.725 104.093 133.213 101.567 132.218 99.3489L126.743 101.803ZM127.848 107.128C127.952 109.247 127.679 111.764 126.958 114.713L132.787 116.138C133.605 112.788 133.981 109.676 133.841 106.834L127.848 107.128ZM128.138 115.001C128.845 112.108 129.226 109.487 129.209 107.184L123.209 107.228C123.221 108.874 122.945 110.975 122.309 113.577L128.138 115.001ZM129.209 107.216C129.216 104.994 128.939 102.941 128.257 101.157L122.653 103.299C122.989 104.179 123.215 105.444 123.209 107.197L129.209 107.216ZM128.268 101.185C127.63 99.4639 126.656 97.9471 125.256 96.8073L121.467 101.46C121.874 101.791 122.296 102.338 122.642 103.271L128.268 101.185ZM125.287 96.8327C124.047 95.7948 122.632 95.0678 121.067 94.6852L119.642 100.514C120.288 100.672 120.879 100.967 121.437 101.434L125.287 96.8327ZM121.067 94.6852C119.502 94.3026 117.911 94.2951 116.332 94.6438L117.626 100.503C118.336 100.346 118.996 100.356 119.642 100.514L121.067 94.6852ZM116.371 94.6355C114.603 95.0012 113.04 95.8977 111.679 97.1308L115.709 101.576C116.446 100.908 117.073 100.617 117.587 100.511L116.371 94.6355ZM111.679 97.1307C110.288 98.3916 109.104 100.069 108.074 102.025L113.383 104.82C114.209 103.253 115.002 102.217 115.709 101.576L111.679 97.1307ZM108.065 102.042C107.012 104.073 106.153 106.567 105.447 109.455L111.275 110.88C111.912 108.273 112.631 106.271 113.392 104.803L108.065 102.042ZM105.447 109.455C104.741 112.343 104.353 114.953 104.35 117.241L110.35 117.247C110.352 115.595 110.638 113.487 111.275 110.88L105.447 109.455ZM104.35 117.266C104.367 119.462 104.647 121.484 105.298 123.24L110.923 121.154C110.59 120.254 110.363 118.975 110.35 117.222L104.35 117.266ZM105.298 123.24C105.934 124.955 106.897 126.467 108.272 127.618L112.123 123.016C111.699 122.662 111.272 122.094 110.923 121.154L105.298 123.24ZM108.303 127.643C109.543 128.653 110.95 129.361 112.499 129.74L113.923 123.912C113.261 123.75 112.658 123.452 112.092 122.991L108.303 127.643ZM112.499 129.74C114.047 130.119 115.622 130.139 117.188 129.815L115.973 123.939C115.258 124.087 114.586 124.074 113.923 123.912L112.499 129.74ZM117.227 129.807C118.978 129.42 120.53 128.523 121.886 127.294L117.857 122.849C117.114 123.522 116.473 123.829 115.934 123.948L117.227 129.807ZM121.864 127.315C123.287 126.05 124.478 124.368 125.494 122.409L120.167 119.647C119.369 121.186 118.587 122.2 117.879 122.829L121.864 127.315ZM125.482 122.431C126.559 120.396 127.43 117.895 128.138 115.001L122.309 113.577C121.673 116.178 120.949 118.17 120.179 119.624L125.482 122.431Z" fill="#D29628"/>
<defs>
<linearGradient id="paint0_linear_540_5818" x1="-12.8719" y1="69.2803" x2="-12.8272" y2="140.946" gradientUnits="userSpaceOnUse">
<stop stop-color="#0E3C52"/>
<stop offset="1" stop-color="#0E3C52"/>
</linearGradient>
<linearGradient id="paint1_linear_540_5818" x1="37.7788" y1="91.3026" x2="-2.22373" y2="190.049" gradientUnits="userSpaceOnUse">
<stop/>
<stop offset="1" stop-color="#6BCB80"/>
</linearGradient>
<linearGradient id="paint2_linear_540_5818" x1="-15.0874" y1="74.855" x2="-14.9742" y2="195.84" gradientUnits="userSpaceOnUse">
<stop stop-color="#0E3C52"/>
<stop offset="1" stop-color="#0E3C52"/>
</linearGradient>
<linearGradient id="paint3_linear_540_5818" x1="138" y1="39" x2="138" y2="55" gradientUnits="userSpaceOnUse">
<stop stop-color="#0E3C52"/>
<stop offset="1" stop-color="#D29628"/>
</linearGradient>
<linearGradient id="paint4_linear_540_5818" x1="85" y1="45" x2="85" y2="186.892" gradientUnits="userSpaceOnUse">
<stop stop-color="#0E3C52"/>
<stop offset="1" stop-color="#0E3C52"/>
</linearGradient>
<linearGradient id="paint5_linear_540_5818" x1="179.354" y1="25.827" x2="150.615" y2="62.5359" gradientUnits="userSpaceOnUse">
<stop stop-color="#0E3C52"/>
<stop offset="1" stop-color="#D29628"/>
</linearGradient>
<linearGradient id="paint6_linear_540_5818" x1="112" y1="186" x2="112" y2="201" gradientUnits="userSpaceOnUse">
<stop stop-color="#0E3C52"/>
<stop offset="1" stop-color="#D29628"/>
</linearGradient>
<linearGradient id="paint7_linear_540_5818" x1="6" y1="70" x2="6" y2="80" gradientUnits="userSpaceOnUse">
<stop stop-color="#0E3C52"/>
<stop offset="1" stop-color="#D29628"/>
</linearGradient>
<linearGradient id="paint8_linear_540_5818" x1="28" y1="158" x2="28" y2="176" gradientUnits="userSpaceOnUse">
<stop stop-color="#0E3C52"/>
<stop offset="1" stop-color="#D29628"/>
</linearGradient>
<linearGradient id="paint9_linear_540_5818" x1="77" y1="12" x2="77" y2="25" gradientUnits="userSpaceOnUse">
<stop stop-color="#0E3C52"/>
<stop offset="1" stop-color="#D29628"/>
</linearGradient>
<linearGradient id="paint10_linear_540_5818" x1="175" y1="130" x2="175" y2="144" gradientUnits="userSpaceOnUse">
<stop stop-color="#0E3C52"/>
<stop offset="1" stop-color="#D29628"/>
</linearGradient>
</defs>
</svg>
