<svg width="20" height="18" viewBox="0 0 20 18" fill="none" xmlns="http://www.w3.org/2000/svg">
<path d="M9.84845 2.84842L9.84847 2.8484C10.0734 2.62337 10.1998 2.3182 10.1998 2C10.1998 1.6818 10.0734 1.37663 9.84847 1.1516L9.84843 1.15156C9.6234 0.926592 9.31823 0.800214 9.00003 0.800214C8.68183 0.800214 8.37666 0.926592 8.15163 1.15156L8.15161 1.15158L1.15161 8.15158L1.15159 8.1516C0.926623 8.37663 0.800244 8.6818 0.800244 9C0.800244 9.3182 0.926623 9.62337 1.15159 9.8484L1.15161 9.84842L8.15161 16.8484L8.15159 16.8484L8.15409 16.8509C8.38041 17.0694 8.68353 17.1904 8.99817 17.1877C9.31281 17.1849 9.61378 17.0587 9.83627 16.8362C10.0588 16.6138 10.185 16.3128 10.1877 15.9981C10.1904 15.6835 10.0695 15.3804 9.85089 15.1541L9.85091 15.154L9.84845 15.1516L4.89687 10.2H18C18.3183 10.2 18.6235 10.0736 18.8486 9.84853C19.0736 9.62348 19.2 9.31826 19.2 9C19.2 8.68174 19.0736 8.37652 18.8486 8.15147C18.6235 7.92643 18.3183 7.8 18 7.8H4.89687L9.84845 2.84842Z" fill="white" stroke="white" stroke-width="0.4"/>
</svg>
