<svg width="22" height="22" viewBox="0 0 22 22" fill="none" xmlns="http://www.w3.org/2000/svg">
<path d="M5.49984 20.1666C4.99567 20.1666 4.56392 19.987 4.20459 19.6276C3.84526 19.2683 3.66589 18.8369 3.66651 18.3333V3.66665C3.66651 3.16248 3.84617 2.73073 4.20551 2.3714C4.56484 2.01206 4.99628 1.8327 5.49984 1.83331H16.4998C17.004 1.83331 17.4358 2.01298 17.7951 2.37231C18.1544 2.73165 18.3338 3.16309 18.3332 3.66665V18.3333C18.3332 18.8375 18.1535 19.2692 17.7942 19.6286C17.4348 19.9879 17.0034 20.1673 16.4998 20.1666H5.49984ZM10.0832 10.0833L12.3748 8.70831L14.6665 10.0833V3.66665H10.0832V10.0833Z" fill="#0E3C52"/>
</svg>
