<svg width="19" height="19" viewBox="0 0 19 19" fill="none" xmlns="http://www.w3.org/2000/svg">
<path d="M14.3313 15.1181L4.27221 15.1181L4.27221 7.21458L14.3313 7.21458M14.3313 3.62205H13.6128V2.18504H12.1758V3.62205L6.42773 3.62205V2.18504H4.99072V3.62205H4.27221C3.8911 3.62205 3.52559 3.77345 3.2561 4.04294C2.9866 4.31243 2.83521 4.67794 2.83521 5.05906L2.83521 15.1181C2.83521 15.4992 2.9866 15.8648 3.2561 16.1342C3.52559 16.4037 3.8911 16.5551 4.27221 16.5551H14.3313C14.7124 16.5551 15.0779 16.4037 15.3474 16.1342C15.6169 15.8648 15.7683 15.4992 15.7683 15.1181L15.7683 5.05906C15.7683 4.67794 15.6169 4.31243 15.3474 4.04294C15.0779 3.77345 14.7124 3.62205 14.3313 3.62205ZM12.5566 9.4132L11.795 8.65158L8.28866 12.1579L6.76543 10.6347L6.00381 11.3963L8.28866 13.6811L12.5566 9.4132Z" fill="#0E3C52"/>
</svg>
