<svg width="16" height="16" viewBox="0 0 16 16" fill="none" xmlns="http://www.w3.org/2000/svg">
<path d="M7.98999 0.902832C7.98999 0.902832 7.98999 0.902832 7.98999 0.902832C6.43819 0.902832 4.92125 1.33909 3.63098 2.15644C2.34071 2.9738 1.33507 4.13553 0.741227 5.49474C0.147381 6.85395 -0.00799549 8.34958 0.294744 9.7925C0.597484 11.2354 1.34474 12.5608 2.44203 13.6011C3.53931 14.6414 4.93733 15.3499 6.45931 15.6369C7.98128 15.9239 9.55885 15.7766 10.9925 15.2136C12.4262 14.6506 13.6516 13.6972 14.5137 12.4739C15.3758 11.2507 15.836 9.81252 15.836 8.34133C15.8339 6.36913 15.0066 4.47829 13.5356 3.08373C12.0647 1.68918 10.0702 0.90484 7.98999 0.902832C7.98999 0.902832 7.98999 0.902832 7.98999 0.902832ZM11.7215 12.1852C11.7212 12.185 11.7208 12.185 11.7205 12.1852C11.6599 12.2426 11.5881 12.2881 11.509 12.3191C11.4298 12.3503 11.3448 12.3663 11.259 12.3663C11.1732 12.3663 11.0882 12.3503 11.0089 12.3191C10.9297 12.288 10.8576 12.2423 10.797 12.1848L7.52799 9.08935C7.46709 9.03195 7.41878 8.9637 7.38583 8.88853C7.35288 8.81336 7.33594 8.73275 7.33599 8.65134V4.62208C7.33599 4.45764 7.40489 4.29993 7.52754 4.18365C7.65019 4.06737 7.81653 4.00205 7.98999 4.00205C8.16344 4.00205 8.32978 4.06737 8.45243 4.18365C8.57508 4.29993 8.64399 4.45764 8.64399 4.62208C8.64399 7.02915 9.63354 9.33037 11.3806 10.9862L11.722 11.3097C11.7827 11.3672 11.8309 11.4355 11.8637 11.5106C11.8966 11.5858 11.9135 11.6664 11.9135 11.7477C11.9135 11.8291 11.8966 11.9096 11.8637 11.9848C11.831 12.0597 11.783 12.1278 11.7225 12.1852C11.7222 12.1855 11.7218 12.1855 11.7215 12.1852Z" fill="#D29628"/>
</svg>
