<svg width="82" height="82" viewBox="0 0 82 82" fill="none" xmlns="http://www.w3.org/2000/svg">
<path d="M36.7382 2.56323C38.46 -0.854409 43.3391 -0.854409 45.0609 2.56323L49.6847 11.7408C50.7229 13.8022 53.1142 14.7926 55.3061 14.0693L65.0649 10.8491C68.6989 9.64994 72.1494 13.1001 70.95 16.7342L67.7297 26.4931C67.0065 28.685 67.9967 31.0761 70.0582 32.1146L79.2359 36.7382C82.6537 38.46 82.6537 43.3391 79.2359 45.0609L70.0582 49.6847C67.9967 50.7229 67.0065 53.1142 67.7297 55.3061L70.95 65.0649C72.1494 68.6989 68.6989 72.1494 65.0649 70.95L55.3061 67.7297C53.1142 67.0065 50.7229 67.9967 49.6847 70.0582L45.0609 79.2359C43.3391 82.6537 38.46 82.6537 36.7382 79.2359L32.1146 70.0582C31.0761 67.9967 28.685 67.0065 26.4931 67.7297L16.7342 70.95C13.1001 72.1494 9.64994 68.6989 10.8491 65.0649L14.0693 55.3061C14.7926 53.1142 13.8022 50.7229 11.7408 49.6847L2.56323 45.0609C-0.854409 43.3391 -0.854409 38.46 2.56323 36.7382L11.7408 32.1146C13.8022 31.0761 14.7926 28.685 14.0693 26.4931L10.8491 16.7342C9.64994 13.1001 13.1001 9.64994 16.7342 10.8491L26.4931 14.0693C28.685 14.7926 31.0761 13.8022 32.1146 11.7408L36.7382 2.56323Z" fill="#D29628"/>
<path d="M28.1465 41.7803L37.2353 51.0157L55.4129 32.5449" fill="#D29628"/>
<path d="M28.1465 41.7803L37.2353 51.0157L55.4129 32.5449" stroke="white" stroke-width="5.71715" stroke-linecap="round" stroke-linejoin="round"/>
</svg>
