<svg width="29" height="29" viewBox="0 0 29 29" fill="none" xmlns="http://www.w3.org/2000/svg">
<path d="M24.9717 7.3276L16.3216 2.30075C15.768 1.97989 15.1395 1.81091 14.4997 1.81091C13.8599 1.81091 13.2314 1.97989 12.6779 2.30075L4.02828 7.3276C3.99421 7.34759 3.96596 7.37614 3.94633 7.41042C3.9267 7.4447 3.91637 7.48351 3.91637 7.52301C3.91637 7.56251 3.9267 7.60133 3.94633 7.6356C3.96596 7.66988 3.99421 7.69843 4.02828 7.71842L14.3867 13.8118C14.4216 13.8323 14.4613 13.8432 14.5017 13.8432C14.5421 13.8432 14.5818 13.8323 14.6167 13.8118L24.9729 7.71842C25.0069 7.69833 25.035 7.6697 25.0546 7.63537C25.0741 7.60103 25.0843 7.56219 25.0842 7.52269C25.0841 7.48319 25.0736 7.4444 25.0539 7.41018C25.0342 7.37596 25.0058 7.34749 24.9717 7.3276ZM14.5 8.60938C13.7495 8.60938 13.1406 8.20383 13.1406 7.70313C13.1406 7.20243 13.7495 6.79688 14.5 6.79688C15.2505 6.79688 15.8594 7.20243 15.8594 7.70313C15.8594 8.20383 15.2505 8.60938 14.5 8.60938ZM13.4805 15.3389L3.05859 9.25961C3.02417 9.23974 2.98512 9.22927 2.94537 9.22926C2.90562 9.22925 2.86657 9.2397 2.83213 9.25955C2.7977 9.27941 2.76909 9.30798 2.74919 9.34239C2.72929 9.3768 2.71879 9.41584 2.71875 9.45559V19.3065C2.71961 19.7812 2.8447 20.2473 3.0816 20.6586C3.31849 21.0699 3.65893 21.412 4.06906 21.6509L13.2539 27.158C13.2883 27.1779 13.3274 27.1884 13.3671 27.1884C13.4069 27.1884 13.4459 27.178 13.4804 27.1581C13.5148 27.1382 13.5434 27.1097 13.5633 27.0753C13.5832 27.0409 13.5937 27.0018 13.5938 26.9621V15.5348C13.5937 15.4951 13.5832 15.4561 13.5633 15.4217C13.5435 15.3873 13.5149 15.3587 13.4805 15.3389ZM5.4375 20.8438C4.9368 20.8438 4.53125 20.2349 4.53125 19.4844C4.53125 18.7339 4.9368 18.125 5.4375 18.125C5.9382 18.125 6.34375 18.7339 6.34375 19.4844C6.34375 20.2349 5.9382 20.8438 5.4375 20.8438ZM10.875 19.0313C10.3743 19.0313 9.96875 18.4224 9.96875 17.6719C9.96875 16.9214 10.3743 16.3125 10.875 16.3125C11.3757 16.3125 11.7812 16.9214 11.7812 17.6719C11.7812 18.4224 11.3757 19.0313 10.875 19.0313ZM25.9414 9.26131L15.5195 15.3813C15.4852 15.4011 15.4567 15.4296 15.4368 15.4639C15.4169 15.4982 15.4064 15.5371 15.4062 15.5767V26.9609C15.4063 27.0007 15.4168 27.0397 15.4367 27.0741C15.4566 27.1085 15.4852 27.1371 15.5196 27.157C15.5541 27.1768 15.5931 27.1873 15.6329 27.1873C15.6726 27.1873 15.7117 27.1768 15.7461 27.1569L24.9304 21.6497C25.3404 21.411 25.6809 21.0691 25.9179 20.658C26.1549 20.247 26.2801 19.781 26.2812 19.3065V9.45899C26.2815 9.41909 26.2712 9.37984 26.2514 9.34519C26.2317 9.31054 26.2031 9.28174 26.1686 9.26168C26.1341 9.24162 26.095 9.23102 26.0551 9.23096C26.0152 9.23089 25.976 9.24136 25.9414 9.26131ZM18.125 24.0156C17.6243 24.0156 17.2188 23.4067 17.2188 22.6563C17.2188 21.9058 17.6243 21.2969 18.125 21.2969C18.6257 21.2969 19.0312 21.9058 19.0312 22.6563C19.0312 23.4067 18.6257 24.0156 18.125 24.0156ZM18.125 19.0313C17.6243 19.0313 17.2188 18.4224 17.2188 17.6719C17.2188 16.9214 17.6243 16.3125 18.125 16.3125C18.6257 16.3125 19.0312 16.9214 19.0312 17.6719C19.0312 18.4224 18.6257 19.0313 18.125 19.0313ZM23.5625 20.8438C23.0618 20.8438 22.6562 20.2349 22.6562 19.4844C22.6562 18.7339 23.0618 18.125 23.5625 18.125C24.0632 18.125 24.4688 18.7339 24.4688 19.4844C24.4688 20.2349 24.0632 20.8438 23.5625 20.8438ZM23.5625 15.8594C23.0618 15.8594 22.6562 15.2505 22.6562 14.5C22.6562 13.7495 23.0618 13.1406 23.5625 13.1406C24.0632 13.1406 24.4688 13.7495 24.4688 14.5C24.4688 15.2505 24.0632 15.8594 23.5625 15.8594Z" fill="#0E3C52"/>
</svg>
