<svg width="16" height="16" viewBox="0 0 16 16" fill="none" xmlns="http://www.w3.org/2000/svg">
<path opacity="0.6" d="M5.87 9.11206C5.87 9.02255 5.83249 8.93669 5.76573 8.8734C5.69897 8.8101 5.60842 8.77454 5.51401 8.77454H4.271C4.17659 8.77454 4.08603 8.8101 4.01927 8.8734C3.95251 8.93669 3.91501 9.02255 3.91501 9.11206V10.2905C3.91501 10.38 3.95251 10.4659 4.01927 10.5292C4.08603 10.5924 4.17659 10.628 4.271 10.628H5.51401C5.60842 10.628 5.69897 10.5924 5.76573 10.5292C5.83249 10.4659 5.87 10.38 5.87 10.2905V9.11206Z" fill="#D29628"/>
<path opacity="0.6" d="M8.976 9.11206C8.976 9.02255 8.9385 8.93669 8.87173 8.8734C8.80497 8.8101 8.71441 8.77454 8.62 8.77454H7.377C7.28258 8.77454 7.19204 8.8101 7.12527 8.8734C7.05851 8.93669 7.021 9.02255 7.021 9.11206V10.2905C7.021 10.38 7.05851 10.4659 7.12527 10.5292C7.19204 10.5924 7.28258 10.628 7.377 10.628H8.62C8.71441 10.628 8.80497 10.5924 8.87173 10.5292C8.9385 10.4659 8.976 10.38 8.976 10.2905V9.11206Z" fill="#D29628"/>
<path opacity="0.6" d="M12.083 9.11206C12.083 9.02255 12.0455 8.93669 11.9787 8.8734C11.912 8.8101 11.8214 8.77454 11.727 8.77454H10.484C10.3896 8.77454 10.299 8.8101 10.2323 8.8734C10.1655 8.93669 10.128 9.02255 10.128 9.11206V10.2905C10.128 10.38 10.1655 10.4659 10.2323 10.5292C10.299 10.5924 10.3896 10.628 10.484 10.628H11.73C11.8244 10.628 11.915 10.5924 11.9817 10.5292C12.0485 10.4659 12.086 10.38 12.086 10.2905L12.083 9.11206Z" fill="#D29628"/>
<path opacity="0.6" d="M5.87 12.0549C5.87 11.9654 5.83249 11.8796 5.76573 11.8163C5.69897 11.753 5.60842 11.7174 5.51401 11.7174H4.271C4.17659 11.7174 4.08603 11.753 4.01927 11.8163C3.95251 11.8796 3.91501 11.9654 3.91501 12.0549V13.2334C3.91501 13.3229 3.95251 13.4087 4.01927 13.472C4.08603 13.5353 4.17659 13.5709 4.271 13.5709H5.51401C5.60842 13.5709 5.69897 13.5353 5.76573 13.472C5.83249 13.4087 5.87 13.3229 5.87 13.2334V12.0549Z" fill="#D29628"/>
<path opacity="0.6" d="M8.976 12.0549C8.976 11.9654 8.9385 11.8796 8.87173 11.8163C8.80497 11.753 8.71441 11.7174 8.62 11.7174H7.377C7.28258 11.7174 7.19204 11.753 7.12527 11.8163C7.05851 11.8796 7.021 11.9654 7.021 12.0549V13.2334C7.021 13.3229 7.05851 13.4087 7.12527 13.472C7.19204 13.5353 7.28258 13.5709 7.377 13.5709H8.62C8.71441 13.5709 8.80497 13.5353 8.87173 13.472C8.9385 13.4087 8.976 13.3229 8.976 13.2334V12.0549Z" fill="#D29628"/>
<path opacity="0.6" d="M12.0845 12.0549C12.0837 12.0549 12.083 12.0542 12.083 12.0534C12.0826 11.9644 12.0451 11.8792 11.9787 11.8163C11.912 11.753 11.8214 11.7174 11.727 11.7174H10.484C10.3896 11.7174 10.299 11.753 10.2323 11.8163C10.1655 11.8796 10.128 11.9654 10.128 12.0549V13.2334C10.128 13.3229 10.1655 13.4087 10.2323 13.472C10.299 13.5353 10.3896 13.5709 10.484 13.5709H11.73C11.8244 13.5709 11.915 13.5353 11.9817 13.472C12.0485 13.4087 12.086 13.3229 12.086 13.2334V12.0564C12.086 12.0556 12.0853 12.0549 12.0845 12.0549Z" fill="#D29628"/>
<path d="M15.2711 2.96413C14.8513 2.55473 14.305 3.04451 14.305 3.63092V4.3604C14.3051 4.55378 14.265 4.74528 14.1869 4.92392C14.1088 5.10257 13.9943 5.26484 13.85 5.40145C13.7056 5.53805 13.5342 5.6463 13.3456 5.71999C13.157 5.79367 12.955 5.83134 12.751 5.83084H11.771C11.3585 5.83211 10.9623 5.67821 10.6693 5.40291C10.3763 5.12761 10.2104 4.75338 10.208 4.3623C10.208 3.36746 9.40152 2.56098 8.40668 2.56098H7.59131C6.59647 2.56098 5.79 3.36746 5.79 4.3623C5.78762 4.75338 5.62173 5.12761 5.32873 5.40291C5.03572 5.67821 4.63951 5.83211 4.227 5.83084H3.247C3.0432 5.83134 2.84129 5.79373 2.65284 5.72017C2.46439 5.6466 2.29309 5.53852 2.14875 5.40212C2.00441 5.26571 1.88986 5.10366 1.81165 4.92524C1.73345 4.74681 1.69313 4.55551 1.693 4.3623V3.63282C1.693 3.04641 1.14672 2.55662 0.726874 2.96603C0.472182 3.21438 0.328863 3.54662 0.326996 3.89301V14.4374C0.326727 14.7919 0.474624 15.1321 0.738317 15.3835C1.00201 15.635 1.36002 15.7771 1.734 15.7789H14.264C14.6379 15.7769 14.9957 15.6346 15.2594 15.3833C15.523 15.1319 15.671 14.7918 15.671 14.4374V3.89111C15.6691 3.54473 15.5258 3.21249 15.2711 2.96413ZM13.85 13.7813C13.85 13.857 13.8343 13.9319 13.8037 14.0019C13.7732 14.0718 13.7284 14.1354 13.6719 14.1889C13.6155 14.2424 13.5484 14.2849 13.4747 14.3138C13.4009 14.3428 13.3218 14.3577 13.242 14.3577H2.729C2.64915 14.3577 2.57009 14.3428 2.49633 14.3138C2.42256 14.2849 2.35553 14.2424 2.29908 14.1889C2.24262 14.1354 2.19783 14.0718 2.16728 14.0019C2.13672 13.9319 2.121 13.857 2.121 13.7813V8.33373C2.121 8.18085 2.18505 8.03424 2.29908 7.92614C2.4131 7.81804 2.56775 7.75731 2.729 7.75731H13.242C13.4032 7.75731 13.5579 7.81804 13.6719 7.92614C13.7859 8.03424 13.85 8.18085 13.85 8.33373V13.7813Z" fill="#D29628"/>
<path opacity="0.6" d="Mnan nanL11.759 4.86289H12.729C12.799 4.86289 12.8683 4.84982 12.933 4.82442C12.9976 4.79903 13.0564 4.76181 13.1059 4.71488C13.1554 4.66796 13.1946 4.61226 13.2214 4.55095C13.2482 4.48964 13.262 4.42393 13.262 4.35757V1.40815C13.262 1.34171 13.2482 1.27592 13.2213 1.21455C13.1945 1.15318 13.1551 1.09744 13.1055 1.0505C13.0559 1.00357 12.9971 0.966364 12.9323 0.941025C12.8675 0.915687 12.7981 0.902708 12.728 0.902833H11.758C11.6166 0.902833 11.4811 0.956072 11.3811 1.05084C11.2811 1.1456 11.225 1.27413 11.225 1.40815V4.35852C11.2251 4.42488 11.2391 4.49056 11.266 4.55182C11.2929 4.61308 11.3322 4.66872 11.3818 4.71555C11.4314 4.76239 11.4902 4.79951 11.555 4.82479C11.6197 4.85007 11.689 4.86301 11.759 4.86289Lnan nanZ" fill="#D29628"/>
</svg>
