<svg width="25" height="25" viewBox="0 0 25 25" fill="none" xmlns="http://www.w3.org/2000/svg">
<g filter="url(#filter0_d_173_905)">
<path fill-rule="evenodd" clip-rule="evenodd" d="M5.97724 2L4.87805 3.08126L19.0227 17L20.1219 15.9184L5.97724 2Z" fill="black" fill-opacity="0.6"/>
<path d="M7.20032 5.36629L8.23492 6.38433C7.10236 7.33323 6.20051 8.51437 5.61773 9.54778L5.61595 9.55127C7.23901 12.2216 9.81431 14.7452 13.0647 14.3624C13.942 14.2591 14.7605 13.964 15.5083 13.5417L16.5557 14.572C15.098 15.4926 13.4271 15.9801 11.6166 15.7392C8.35204 15.3047 5.68268 12.67 4 9.57572C4.79005 8.01146 5.87079 6.51495 7.20032 5.36629ZM9.55345 3.85756C10.4663 3.45733 11.454 3.22194 12.5089 3.20517C12.5674 3.20482 13.2627 3.2373 13.5779 3.28829C13.7756 3.32042 13.9726 3.36059 14.1667 3.41053C17.2634 4.20436 19.5576 6.78038 21 9.43428C20.3949 10.6367 19.6023 11.8102 18.6572 12.8157L17.6538 11.8283C18.3519 11.0879 18.934 10.2637 19.3823 9.46431C19.3823 9.46431 18.9315 8.75116 18.5897 8.30343C18.37 8.01565 18.139 7.73626 17.8962 7.46699C17.7046 7.25465 16.9603 6.53346 16.7832 6.38329C15.5949 5.37782 14.1997 4.58887 12.5263 4.60215C11.8782 4.61227 11.2549 4.738 10.6633 4.94964L9.55345 3.85756Z" fill="black" fill-opacity="0.6"/>
<path fill-rule="evenodd" clip-rule="evenodd" d="M10.0166 8.13799L10.8153 8.92357L13.8895 11.9486C13.4785 12.1756 13.0043 12.3048 12.5 12.3048C10.9295 12.3048 9.6546 11.0503 9.6546 9.50493C9.6546 9.00866 9.78628 8.54242 10.0166 8.13799ZM12.4475 6.70575C12.4649 6.7054 12.4826 6.70505 12.5 6.70505C14.0705 6.70505 15.3454 7.95988 15.3454 9.50493C15.3454 9.52239 15.3454 9.53951 15.345 9.55662L12.4475 6.70575Z" fill="black" fill-opacity="0.6"/>
</g>
<defs>
<filter id="filter0_d_173_905" x="-1" y="0" width="28" height="28" filterUnits="userSpaceOnUse" color-interpolation-filters="sRGB">
<feFlood flood-opacity="0" result="BackgroundImageFix"/>
<feColorMatrix in="SourceAlpha" type="matrix" values="0 0 0 0 0 0 0 0 0 0 0 0 0 0 0 0 0 0 127 0" result="hardAlpha"/>
<feOffset dy="4"/>
<feGaussianBlur stdDeviation="2"/>
<feComposite in2="hardAlpha" operator="out"/>
<feColorMatrix type="matrix" values="0 0 0 0 0 0 0 0 0 0 0 0 0 0 0 0 0 0 0.25 0"/>
<feBlend mode="normal" in2="BackgroundImageFix" result="effect1_dropShadow_173_905"/>
<feBlend mode="normal" in="SourceGraphic" in2="effect1_dropShadow_173_905" result="shape"/>
</filter>
</defs>
</svg>
