<svg width="24" height="17" viewBox="0 0 24 17" fill="none" xmlns="http://www.w3.org/2000/svg">
<path d="M7.2 8.5C9.52125 8.5 11.4 6.64082 11.4 4.34375C11.4 2.04668 9.52125 0.1875 7.2 0.1875C4.87875 0.1875 3 2.04668 3 4.34375C3 6.64082 4.87875 8.5 7.2 8.5ZM10.08 9.6875H9.76875C8.98875 10.0586 8.1225 10.2812 7.2 10.2812C6.2775 10.2812 5.415 10.0586 4.63125 9.6875H4.32C1.935 9.6875 0 11.6023 0 13.9625V15.0312C0 16.0146 0.80625 16.8125 1.8 16.8125H12.6C13.5938 16.8125 14.4 16.0146 14.4 15.0312V13.9625C14.4 11.6023 12.465 9.6875 10.08 9.6875ZM18 8.5C19.9875 8.5 21.6 6.9043 21.6 4.9375C21.6 2.9707 19.9875 1.375 18 1.375C16.0125 1.375 14.4 2.9707 14.4 4.9375C14.4 6.9043 16.0125 8.5 18 8.5ZM19.8 9.6875H19.6575C19.1363 9.86563 18.585 9.98438 18 9.98438C17.415 9.98438 16.8638 9.86563 16.3425 9.6875H16.2C15.435 9.6875 14.73 9.90645 14.1112 10.259C15.0262 11.235 15.6 12.5301 15.6 13.9625V15.3875C15.6 15.4691 15.5813 15.5471 15.5775 15.625H22.2C23.1938 15.625 24 14.8271 24 13.8438C24 11.5467 22.1213 9.6875 19.8 9.6875Z" fill="#0E3C52"/>
</svg>
