<svg width="7" height="12" viewBox="0 0 7 12" fill="none" xmlns="http://www.w3.org/2000/svg">
<path d="M4.29283 6.02518L0.325864 10.0571C0.117149 10.2705 -1.25077e-06 10.5592 -1.28831e-06 10.8601C-1.32585e-06 11.161 0.117149 11.4497 0.325864 11.6631C0.430039 11.7698 0.55398 11.8546 0.690537 11.9124C0.827094 11.9702 0.973564 12 1.1215 12C1.26943 12 1.4159 11.9702 1.55246 11.9124C1.68902 11.8546 1.81296 11.7698 1.91713 11.6631L6.66853 6.83385C6.77356 6.72797 6.85693 6.602 6.91382 6.4632C6.97071 6.32441 7 6.17554 7 6.02518C7 5.87482 6.97071 5.72595 6.91382 5.58716C6.85693 5.44837 6.77356 5.32239 6.66853 5.21651L1.91713 0.330322C1.81242 0.22476 1.68824 0.141245 1.55171 0.0845648C1.41518 0.0278843 1.26898 -0.000847914 1.1215 1.87133e-05C0.97402 -0.000847932 0.827822 0.0278843 0.691289 0.0845648C0.554757 0.141245 0.430575 0.22476 0.325865 0.330322C0.11715 0.543722 -3.73282e-08 0.832397 -7.48661e-08 1.1333C-1.12404e-07 1.4342 0.11715 1.72287 0.325865 1.93627L4.29283 6.02518Z" fill="#0E3C52"/>
</svg>
