<svg width="9" height="13" viewBox="0 0 9 13" fill="none" xmlns="http://www.w3.org/2000/svg">
<path d="M8.79812 12.7708H0.193606V10.9176H8.79812V12.7708ZM6.36693 7.95008H0.151895V6.14456H6.36693V7.95008ZM3.54246 4.10069L3.73314 9.20739C3.75697 9.73573 3.66958 10.1926 3.47095 10.5779C3.2763 10.9593 2.93267 11.2731 2.44008 11.5194L0.866951 10.9176C1.06161 10.8898 1.21058 10.7885 1.31386 10.6137C1.41715 10.4389 1.48667 10.2323 1.52242 9.99395C1.55817 9.75162 1.57208 9.52122 1.56413 9.30273L1.38537 4.10069C1.35756 3.29426 1.5105 2.61694 1.8442 2.06873C2.18186 1.51655 2.64069 1.10142 3.22068 0.823343C3.80067 0.541293 4.44224 0.400268 5.14538 0.400268C5.7492 0.400268 6.28947 0.491637 6.76617 0.674374C7.24685 0.85711 7.65006 1.11135 7.97581 1.4371C8.30553 1.76285 8.54587 2.14024 8.69682 2.56927C8.85175 2.99831 8.90141 3.46111 8.84579 3.95768L6.77809 3.78487C6.8059 3.42337 6.74631 3.12742 6.59932 2.89701C6.45631 2.66263 6.25769 2.49181 6.00344 2.38455C5.75317 2.27332 5.48503 2.2177 5.199 2.2177C4.90504 2.2177 4.63093 2.28524 4.37669 2.4203C4.12642 2.55537 3.92382 2.76194 3.76889 3.04002C3.61793 3.3181 3.54246 3.67165 3.54246 4.10069Z" fill="#0E3C52"/>
</svg>
