<svg width="21" height="20" viewBox="0 0 21 20" fill="none" xmlns="http://www.w3.org/2000/svg">
<path d="M16.8321 0.445C16.7408 0.308084 16.617 0.195832 16.4719 0.118205C16.3268 0.0405779 16.1647 -2.46193e-05 16.0001 1.11994e-08H4.00012L3.87512 0.00799991C3.71184 0.0284742 3.55613 0.0889272 3.42181 0.183997C3.28749 0.279067 3.17871 0.405815 3.10512 0.553L0.105117 6.553L0.0531172 6.678C-0.00407484 6.8464 -0.0153212 7.02701 0.0205373 7.2012C0.0563959 7.3754 0.138062 7.53688 0.257117 7.669L9.23912 17.652C9.3766 17.8145 9.56342 17.9275 9.77112 17.974L9.88312 17.994C10.0485 18.0131 10.2161 17.9909 10.3709 17.9295C10.5256 17.8681 10.6628 17.7693 10.7701 17.642L11.0301 17.352C11.0101 17.1938 11.0001 17.0345 11.0001 16.875V16.772C11.0001 16.4078 11.0719 16.0472 11.2113 15.7107C11.3507 15.3743 11.5551 15.0686 11.8127 14.8112C12.0703 14.5538 12.3762 14.3496 12.7127 14.2104C13.0492 14.0712 13.4099 13.9997 13.7741 14H14.0481L14.0501 13.998C13.405 13.3665 13.0289 12.5101 13.0003 11.6078C12.9717 10.7055 13.2929 9.827 13.8968 9.15591C14.5006 8.48482 15.3404 8.073 16.2407 8.0065C17.141 7.93999 18.0322 8.22393 18.7281 8.799L19.7441 7.669L19.8281 7.562C19.9281 7.41483 19.9871 7.24365 19.9988 7.0661C20.0106 6.88856 19.9748 6.71109 19.8951 6.552L16.8951 0.552L16.8321 0.445ZM7.42312 8H12.5761L10.0001 14.342L7.42312 8ZM3.24612 8H5.26412L6.92412 12.087L3.24612 8ZM4.61812 2H6.62212L5.32212 6H2.61812L4.61812 2ZM8.72612 2H11.2731L12.5721 6H7.42712L8.72612 2ZM13.3771 2H15.3811L17.3811 6H14.6771L13.3771 2ZM19.0001 11.5C19.0001 12.163 18.7367 12.7989 18.2679 13.2678C17.799 13.7366 17.1632 14 16.5001 14C15.8371 14 15.2012 13.7366 14.7324 13.2678C14.2635 12.7989 14.0001 12.163 14.0001 11.5C14.0001 10.837 14.2635 10.2011 14.7324 9.73223C15.2012 9.26339 15.8371 9 16.5001 9C17.1632 9 17.799 9.26339 18.2679 9.73223C18.7367 10.2011 19.0001 10.837 19.0001 11.5ZM21.0001 16.875C21.0001 18.431 19.7141 20 16.5001 20C13.2861 20 12.0001 18.437 12.0001 16.875V16.772C12.0001 15.792 12.7941 15 13.7731 15H19.2271C20.2071 15 21.0001 15.793 21.0001 16.772V16.875Z" fill="#0E3C52"/>
</svg>
