<svg width="18" height="18" viewBox="0 0 18 18" fill="none" xmlns="http://www.w3.org/2000/svg">
<path d="M10.7678 7.23223C11.7441 8.20854 11.7441 9.79145 10.7678 10.7678C9.79145 11.7441 8.20854 11.7441 7.23223 10.7678C6.25592 9.79145 6.25592 8.20854 7.23223 7.23223C8.20854 6.25592 9.79145 6.25592 10.7678 7.23223" stroke="#0E3C52" stroke-width="1.5" stroke-linecap="round" stroke-linejoin="round"/>
<path fill-rule="evenodd" clip-rule="evenodd" d="M11.8489 1.12002L12.4319 1.31402C12.9659 1.49202 13.3269 1.99202 13.3269 2.55502V3.39202C13.3269 4.10402 13.8949 4.68502 14.6069 4.70002L15.4449 4.71802C15.9299 4.72802 16.3699 5.00702 16.5869 5.44102L16.8619 5.99102C17.1139 6.49502 17.0149 7.10302 16.6169 7.50102L16.0249 8.09302C15.5219 8.59602 15.5129 9.40902 16.0049 9.92302L16.5849 10.529C16.9209 10.88 17.0349 11.387 16.8809 11.848L16.6869 12.431C16.5089 12.965 16.0089 13.326 15.4459 13.326H14.6089C13.8969 13.326 13.3159 13.894 13.3009 14.606L13.2829 15.444C13.2729 15.929 12.9939 16.369 12.5599 16.586L12.0099 16.861C11.5059 17.113 10.8979 17.014 10.4999 16.616L9.90791 16.024C9.40491 15.521 8.59191 15.512 8.07791 16.004L7.47191 16.584C7.12091 16.92 6.61391 17.034 6.15291 16.88L5.56991 16.686C5.03591 16.508 4.67491 16.008 4.67491 15.445V14.608C4.67491 13.896 4.10691 13.315 3.39491 13.3L2.55691 13.282C2.07191 13.272 1.63191 12.993 1.41491 12.559L1.13991 12.009C0.887908 11.505 0.986908 10.897 1.38491 10.499L1.97691 9.90702C2.47991 9.40402 2.48891 8.59102 1.99691 8.07702L1.41691 7.47102C1.07991 7.11902 0.965908 6.61102 1.11991 6.15102L1.31391 5.56802C1.49191 5.03402 1.99191 4.67302 2.55491 4.67302H3.39191C4.10391 4.67302 4.68491 4.10502 4.69991 3.39302L4.71791 2.55502C4.72991 2.07002 5.00791 1.63002 5.44191 1.41302L5.99191 1.13802C6.49591 0.886016 7.10391 0.985016 7.50191 1.38302L8.09391 1.97502C8.59691 2.47802 9.40991 2.48702 9.92391 1.99502L10.5299 1.41502C10.8809 1.08002 11.3889 0.966016 11.8489 1.12002V1.12002Z" stroke="#0E3C52" stroke-width="1.5" stroke-linecap="round" stroke-linejoin="round"/>
</svg>
