<svg width="20" height="20" viewBox="0 0 20 20" fill="none" xmlns="http://www.w3.org/2000/svg">
<path d="M10 1.66667C5.40002 1.66667 1.66669 5.40001 1.66669 10C1.66669 14.6 5.40002 18.3333 10 18.3333C14.6 18.3333 18.3334 14.6 18.3334 10C18.3334 5.40001 14.6 1.66667 10 1.66667ZM5.89169 15.2333C6.25002 14.4833 8.43335 13.75 10 13.75C11.5667 13.75 13.7584 14.4833 14.1084 15.2333C12.975 16.1333 11.55 16.6667 10 16.6667C8.45002 16.6667 7.02502 16.1333 5.89169 15.2333ZM15.3 14.025C14.1084 12.575 11.2167 12.0833 10 12.0833C8.78335 12.0833 5.89169 12.575 4.70002 14.025C3.85002 12.9083 3.33335 11.5167 3.33335 10C3.33335 6.32501 6.32502 3.33334 10 3.33334C13.675 3.33334 16.6667 6.32501 16.6667 10C16.6667 11.5167 16.15 12.9083 15.3 14.025ZM10 5.00001C8.38335 5.00001 7.08335 6.30001 7.08335 7.91667C7.08335 9.53334 8.38335 10.8333 10 10.8333C11.6167 10.8333 12.9167 9.53334 12.9167 7.91667C12.9167 6.30001 11.6167 5.00001 10 5.00001ZM10 9.16667C9.30835 9.16667 8.75002 8.60834 8.75002 7.91667C8.75002 7.22501 9.30835 6.66667 10 6.66667C10.6917 6.66667 11.25 7.22501 11.25 7.91667C11.25 8.60834 10.6917 9.16667 10 9.16667Z" fill="#0E3C52"/>
</svg>
